PathFileType	4	(X/Y/Z)	 s05c0301.trc
DataRate	CameraRate	NumFrames	NumMarkers	Units	OrigDataRate	OrigDataStartFrame	OrigNumFrames
200	200	4	50	mm	200	1251	2000
Frame#	Time	racr			lacr			c7			jug			rlel			rdr			llel			ldr			s2			lic			ric			lasi			rasi			rpsi			lpsi			rgt			lgt			rth1			rth2			rth3			rth4			rlfc			rmfc			rsh1			rsh2			rsh3			rsh4			rlmal			rmmal			rcal			rtoe			rmt5			lth1			lth2			lth4			lth3			llfc			lmfc			lsh1			lsh2			lsh3			lsh4			llmal			lmmal			lcal			ltoe			lmt5			SBIKE			LBIKE			RBIKE			
		X1	Y1	Z1	X2	Y2	Z2	X3	Y3	Z3	X4	Y4	Z4	X5	Y5	Z5	X6	Y6	Z6	X7	Y7	Z7	X8	Y8	Z8	X9	Y9	Z9	X10	Y10	Z10	X11	Y11	Z11	X12	Y12	Z12	X13	Y13	Z13	X14	Y14	Z14	X15	Y15	Z15	X16	Y16	Z16	X17	Y17	Z17	X18	Y18	Z18	X19	Y19	Z19	X20	Y20	Z20	X21	Y21	Z21	X22	Y22	Z22	X23	Y23	Z23	X24	Y24	Z24	X25	Y25	Z25	X26	Y26	Z26	X27	Y27	Z27	X28	Y28	Z28	X29	Y29	Z29	X30	Y30	Z30	X31	Y31	Z31	X32	Y32	Z32	X33	Y33	Z33	X34	Y34	Z34	X35	Y35	Z35	X36	Y36	Z36	X37	Y37	Z37	X38	Y38	Z38	X39	Y39	Z39	X40	Y40	Z40	X41	Y41	Z41	X42	Y42	Z42	X43	Y43	Z43	X44	Y44	Z44	X45	Y45	Z45	X46	Y46	Z46	X47	Y47	Z47	X48	Y48	Z48	X49	Y49	Z49	X50	Y50	Z50	
1251	6.2550	717.529228	1319.418311	-134.584484	739.889949	1302.075912	-406.230544	721.461251	1384.324209	-281.528196	656.918431	1232.500825	-268.782110	561.486883	1109.783618	2.074257	691.686945	920.638131	-66.662495	561.542224	1113.705908	-575.308087	690.444595	928.030064	-462.047943	131.144135	1229.302569	-320.759361	302.119358	1200.657918	-440.057411	258.519978	1261.914622	-165.862945	332.491894	1144.327397	-387.911236	288.195294	1189.648506	-177.845283	164.665398	1281.554415	-284.519172	184.166325	1265.699977	-368.016620	205.109739	1143.004847	-123.927035	213.383121	1105.466131	-458.543862	300.860600	1079.214442	-94.112817	384.778366	1052.385158	-77.324389	441.047131	985.481643	-64.347754	405.704405	1079.088970	-92.752351	545.160533	884.598550	-69.699189	549.168931	871.791314	-182.197272	449.417222	835.786969	-55.405142	395.127854	767.368417	-70.314546	317.592219	733.738294	-82.058938	417.847794	743.313256	-89.068623	218.490276	643.859008	-99.328300	253.623280	655.973758	-174.915153	156.107212	680.876536	-146.664229	292.315666	419.349612	-151.567220	220.596700	490.455373	-84.514885	248.721028	972.334701	-472.861009	286.381265	896.131072	-464.603507	320.802121	902.141885	-450.684314	278.754364	805.728253	-459.581851	295.253458	666.055980	-423.893094	266.520796	657.028511	-322.455863	234.574207	556.033750	-459.074286	226.552142	469.974184	-448.407453	176.420736	396.657682	-451.707043	254.235559	462.112652	-422.617994	146.964822	281.663991	-447.421168	167.418775	302.031985	-372.912646	77.339003	266.888621	-412.544452	341.262585	138.021182	-382.466267	239.741351	152.108722	-459.326565	-214.154105	914.529258	-268.730508	-43.626252	84.844939	-475.046601	-51.797624	80.142951	-77.557750	
1252	6.2600	717.214971	1319.915387	-132.762698	740.264156	1303.540718	-404.041765	721.577955	1384.834899	-279.418389	656.356300	1233.784880	-267.452162	562.126030	1110.208147	1.640163	691.800241	921.473376	-66.614280	562.716668	1115.444816	-574.475191	691.172248	928.119390	-462.342541	131.707644	1230.810730	-325.432325	304.700472	1201.392959	-441.637814	256.164247	1264.613942	-168.788625	333.865907	1145.575755	-388.315334	285.375570	1192.397744	-180.036876	165.024876	1282.866381	-289.535974	185.409059	1267.041314	-372.338154	202.657955	1146.076071	-126.873372	216.093056	1106.465240	-460.758273	299.045281	1083.486284	-96.636024	383.161377	1057.638910	-79.364332	440.096677	991.774733	-65.347121	403.840518	1084.926857	-94.255227	546.954147	892.986012	-68.866611	551.803120	880.329789	-182.120274	452.857090	842.111435	-55.546605	400.057185	772.197186	-70.661171	323.172320	737.255666	-82.355745	423.422550	748.999669	-89.515779	225.531047	645.417060	-99.396874	260.357909	657.939376	-174.699852	162.224357	680.838574	-146.644767	304.007758	422.519572	-151.522152	230.805899	492.218101	-84.339860	250.461145	974.335967	-474.179381	286.855462	897.505978	-465.893213	321.205453	902.922294	-451.601773	277.749510	807.217000	-460.758931	291.823147	666.855381	-425.495539	261.823202	658.266025	-323.837048	230.963163	557.168804	-461.328012	222.145833	471.064572	-450.711719	171.576732	398.227869	-454.842915	249.382596	463.097525	-424.468607	141.234070	283.165654	-450.422788	161.591433	303.480754	-374.755735	71.200091	270.453147	-416.277344	330.854775	134.614322	-381.326531	230.909260	150.749912	-459.827704	-214.252316	914.528820	-268.749401	-43.640482	84.861300	-475.062909	-51.805257	80.138707	-77.576467	
1253	6.2650	717.041949	1320.263708	-131.000272	740.493184	1305.078038	-401.763617	721.710308	1385.317537	-277.321709	655.749633	1234.929094	-265.674367	562.651116	1110.315877	1.155506	691.913546	922.386284	-66.663120	563.885451	1117.068639	-573.660810	691.919641	928.190562	-462.695019	132.813398	1233.008019	-331.008510	306.990906	1202.558902	-443.244922	253.682522	1267.657017	-171.544174	335.037725	1147.094339	-388.630866	283.473664	1195.494742	-182.113124	165.562661	1284.493897	-294.611249	186.480991	1268.944688	-376.599515	199.712831	1149.172751	-130.308073	218.632859	1107.845039	-463.150341	296.574565	1087.525449	-99.353147	380.806754	1062.746544	-81.138233	438.409289	997.595388	-66.661165	401.308534	1090.374645	-95.713099	548.630567	900.892750	-69.891721	553.663767	888.738300	-182.325869	455.738326	847.778628	-55.833409	404.456248	776.702522	-70.893414	328.430875	740.001039	-82.596865	428.247466	753.949595	-89.992395	232.021898	646.196330	-99.553134	266.647166	659.331241	-174.471407	167.859085	680.053965	-146.668169	315.762859	425.292049	-151.465011	241.606930	493.315209	-83.622243	252.700092	976.621023	-475.457934	287.986742	899.281001	-466.699422	322.213517	904.332085	-452.063939	277.554379	809.241781	-462.117152	289.470385	668.161401	-426.831465	258.551072	660.095240	-325.099605	228.104097	558.865193	-463.276944	218.538663	473.019919	-452.698840	167.448254	400.447539	-457.674225	245.299197	464.770518	-426.016258	136.067817	285.600233	-452.964844	156.390369	305.933572	-376.489559	65.544948	275.187563	-419.574042	320.319418	131.625136	-380.157784	222.050006	150.180316	-460.150770	-214.386170	914.511746	-268.760827	-43.653782	84.872785	-475.098023	-51.840999	80.175842	-77.592170	
1254	6.2700	717.007402	1320.291044	-129.442605	740.589452	1306.628674	-399.350812	721.734526	1385.815239	-275.116157	655.066186	1235.964600	-264.390889	562.802078	1110.399382	1.469510	692.097245	923.450856	-66.828156	565.133713	1118.666825	-572.876253	692.498858	928.353705	-463.324567	133.303628	1235.543625	-335.427990	308.971673	1204.219808	-444.794138	251.359025	1270.639816	-174.523977	336.347138	1149.424069	-389.868895	281.345128	1198.790462	-184.140499	163.969405	1288.095609	-298.046886	187.556852	1271.257474	-380.426124	196.759989	1152.972788	-133.157121	221.030268	1109.544006	-465.696378	293.575076	1091.234381	-102.097933	377.864453	1067.483221	-83.104122	436.200122	1003.148300	-68.182400	398.210390	1095.515308	-97.175352	549.278118	908.301140	-70.084205	554.889567	896.398915	-182.137512	458.130673	853.046453	-56.293185	408.488205	780.748760	-71.219410	333.360289	742.133830	-82.750896	432.563935	758.423352	-91.111319	237.838440	646.350191	-99.639730	272.356651	659.959665	-174.312520	172.782177	678.343242	-146.832193	327.935491	427.718503	-151.522656	251.536880	493.847667	-83.370192	255.290799	979.211877	-476.424275	289.744629	901.564167	-467.098865	323.761440	906.282607	-452.045629	278.390883	811.618336	-462.864685	288.314518	669.945419	-427.943111	256.462088	662.416212	-325.896666	226.112343	561.287393	-464.801209	215.605132	475.478885	-454.251300	163.963361	403.439056	-460.032756	241.981149	467.059394	-427.311158	131.397685	288.750909	-454.927454	151.424098	308.993138	-378.043397	60.365549	281.292847	-422.758872	309.820256	129.108192	-379.305108	213.125696	150.412804	-460.426841	-214.472541	914.536020	-268.786440	-43.686730	84.931338	-475.122023	-51.865582	80.217782	-77.601235	
